# xmcd
#
# Track frame offsets: 
#        150
#        65003
#        169682
#        220804
#
# Disc length: 3502 seconds
#
# Revision: 0
# Processed by: cddbd v1.5.1PL0 Copyright (c) Steve Scherf et al.
# Submitted via: ExactAudioCopy v0.95a5
#
DISCID=350dac04
DTITLE=william basinski  - cd 1 variations: a movement in chrome primi
DTITLE=tive
DYEAR=1981
DGENRE=A Cappella
TTITLE0=var_1
TTITLE1=var_2
TTITLE2=var_3
TTITLE3=var_4
EXTD=
EXTT0=
EXTT1=
EXTT2=
EXTT3=
PLAYORDER=
